<?xml version="1.0" encoding="UTF-8" standalone="no"?>
<!-- Created with Inkscape (http://www.inkscape.org/) -->

<svg
   xmlns:dc="http://purl.org/dc/elements/1.1/"
   xmlns:cc="http://creativecommons.org/ns#"
   xmlns:rdf="http://www.w3.org/1999/02/22-rdf-syntax-ns#"
   xmlns:svg="http://www.w3.org/2000/svg"
   xmlns="http://www.w3.org/2000/svg"
   xmlns:sodipodi="http://sodipodi.sourceforge.net/DTD/sodipodi-0.dtd"
   xmlns:inkscape="http://www.inkscape.org/namespaces/inkscape"
   width="128"
   height="128"
   id="svg2"
   version="1.1"
   inkscape:version="0.48.4 r9939"
   sodipodi:docname="cup_steaming.svg"
   inkscape:export-filename="C:\wamp\www\Cocoas\img\cup_steaming.png"
   inkscape:export-xdpi="180"
   inkscape:export-ydpi="180">
  <defs
     id="defs4" />
  <sodipodi:namedview
     id="base"
     pagecolor="#ffffff"
     bordercolor="#666666"
     borderopacity="1.0"
     inkscape:pageopacity="0.0"
     inkscape:pageshadow="2"
     inkscape:zoom="8.5650855"
     inkscape:cx="40.014736"
     inkscape:cy="101.18717"
     inkscape:document-units="px"
     inkscape:current-layer="g2997"
     showgrid="false"
     inkscape:window-width="1600"
     inkscape:window-height="837"
     inkscape:window-x="-8"
     inkscape:window-y="-8"
     inkscape:window-maximized="1"
     fit-margin-top="0"
     fit-margin-left="0"
     fit-margin-right="0"
     fit-margin-bottom="0"
     showguides="true"
     inkscape:guide-bbox="true" />
  <metadata
     id="metadata7">
    <rdf:RDF>
      <cc:Work
         rdf:about="">
        <dc:format>image/svg+xml</dc:format>
        <dc:type
           rdf:resource="http://purl.org/dc/dcmitype/StillImage" />
        <dc:title />
      </cc:Work>
    </rdf:RDF>
  </metadata>
  <g
     inkscape:label="Layer 1"
     inkscape:groupmode="layer"
     id="layer1"
     transform="translate(-0.41590729,-916.01843)">
    <g
       id="g3278"
       transform="matrix(1.4138701,0,0,1.4138701,-72.42727,-414.84774)">
      <text
         transform="translate(0,952.36218)"
         sodipodi:linespacing="125%"
         id="text3034"
         y="4.8738461"
         x="89.886154"
         style="font-size:40px;font-style:normal;font-weight:normal;line-height:125%;letter-spacing:0px;word-spacing:0px;fill:#000000;fill-opacity:1;stroke:none;font-family:Sans"
         xml:space="preserve"><tspan
           style="font-size:72px;font-style:normal;font-variant:normal;font-weight:normal;font-stretch:normal;font-family:Segoe UI;-inkscape-font-specification:Segoe UI"
           y="4.8738461"
           x="89.886154"
           id="tspan3036"
           sodipodi:role="line" /></text>
      <g
         transform="matrix(1.1291892,0,0,1.3170951,46.554592,-323.44292)"
         id="g3066">
        <g
           id="g2997"
           transform="translate(0,-4.4805863)">
          <g
             id="g3806"
             transform="matrix(-1,0,0,1,88.96646,0)">
            <path
               style="font-size:medium;font-style:normal;font-variant:normal;font-weight:normal;font-stretch:normal;text-indent:0;text-align:start;text-decoration:none;line-height:normal;letter-spacing:normal;word-spacing:normal;text-transform:none;direction:ltr;block-progression:tb;writing-mode:lr-tb;text-anchor:start;baseline-shift:baseline;color:#000000;fill:#aa55ff;fill-opacity:1;stroke:none;stroke-width:6;marker:none;visibility:visible;display:inline;overflow:visible;enable-background:accumulate;font-family:Sans;-inkscape-font-specification:Sans"
               d="m 22.724954,992.07465 c 0,1.0305 0.04373,2.05036 0.113033,3.05949 -2.065189,0.25395 -4.692099,0.6759 -7.314861,1.34286 -2.772714,0.70508 -5.5478563,1.66165 -7.7669939,3.2533 -1.1095688,0.7958 -2.0915604,1.7809 -2.7289438,3.0872 -0.6373833,1.3063 -0.8190145,2.9263 -0.4198375,4.4577 0.8297503,3.1833 3.5558957,5.0764 6.5236292,6.3959 2.967733,1.3193 6.437696,2.1457 9.817738,2.7134 3.962623,0.6655 7.767385,0.958 10.269872,1.0936 5.630049,7.0819 13.583832,11.5043 22.412863,11.5043 17.079222,0 30.938795,-16.5229 30.938795,-36.90775 l -30.938795,0 -30.906499,0 z m 0.742789,8.01555 c 0.816583,4.4017 2.276209,8.5133 4.279113,12.1688 -1.830456,-0.168 -3.889244,-0.3973 -5.97461,-0.7476 -3.143311,-0.5279 -6.299021,-1.3202 -8.622817,-2.3534 -2.323795,-1.0331 -3.5119546,-2.2437 -3.7462421,-3.1426 -0.132842,-0.5096 -0.1097816,-0.7002 0.048443,-1.0244 0.1582243,-0.3243 0.5415785,-0.7774 1.1949221,-1.246 1.306687,-0.9372 3.643386,-1.8247 6.103791,-2.4503 2.358442,-0.5998 4.800513,-0.965 6.7174,-1.2045 z"
               id="path3064"
               inkscape:connector-curvature="0" />
            <g
               id="g2992" />
          </g>
          <g
             id="g3788"
             transform="translate(-4.2415058,0)">
            <path
               sodipodi:nodetypes="czcc"
               inkscape:connector-curvature="0"
               id="path3003"
               d="m 25.758008,986.46417 c 0,0 2.516467,-2.46941 2.522926,-5.0341 0.0065,-2.5647 -4.979303,-5.03589 -4.985784,-7.59622 -0.0065,-2.56033 2.462858,-5.0341 2.462858,-5.0341"
               style="fill:none;stroke:#aa55ff;stroke-width:2.85833526;stroke-linecap:round;stroke-linejoin:round;stroke-opacity:1" />
            <path
               style="fill:none;stroke:#aa55ff;stroke-width:2.85833526;stroke-linecap:round;stroke-linejoin:round;stroke-opacity:1"
               d="m 40.054808,986.46417 c 0,0 2.516467,-2.46941 2.522926,-5.0341 0.0065,-2.5647 -4.979303,-5.03589 -4.985784,-7.59622 -0.0065,-2.56033 2.462858,-5.0341 2.462858,-5.0341"
               id="path3784"
               inkscape:connector-curvature="0"
               sodipodi:nodetypes="czcc" />
            <path
               sodipodi:nodetypes="czcc"
               inkscape:connector-curvature="0"
               id="path3786"
               d="m 54.351607,986.46417 c 0,0 2.516467,-2.46941 2.522926,-5.0341 0.0065,-2.5647 -4.979303,-5.03589 -4.985784,-7.59622 -0.0065,-2.56033 2.462858,-5.0341 2.462858,-5.0341"
               style="fill:none;stroke:#aa55ff;stroke-width:2.85833526;stroke-linecap:round;stroke-linejoin:round;stroke-opacity:1" />
          </g>
        </g>
        <g
           transform="matrix(0.88559118,0,0,0.75924662,-40.49782,245.57298)"
           style="font-size:50.29017258px;font-style:normal;font-weight:normal;line-height:125%;letter-spacing:0px;word-spacing:0px;fill:#000000;fill-opacity:1;stroke:none;font-family:Sans"
           id="text3006" />
      </g>
    </g>
  </g>
</svg>
