<?xml version="1.0" encoding="UTF-8" standalone="no"?>
<!-- Created with Inkscape (http://www.inkscape.org/) -->

<svg
   xmlns:dc="http://purl.org/dc/elements/1.1/"
   xmlns:cc="http://creativecommons.org/ns#"
   xmlns:rdf="http://www.w3.org/1999/02/22-rdf-syntax-ns#"
   xmlns:svg="http://www.w3.org/2000/svg"
   xmlns="http://www.w3.org/2000/svg"
   xmlns:xlink="http://www.w3.org/1999/xlink"
   xmlns:sodipodi="http://sodipodi.sourceforge.net/DTD/sodipodi-0.dtd"
   xmlns:inkscape="http://www.inkscape.org/namespaces/inkscape"
   width="350"
   height="100"
   id="svg2"
   version="1.1"
   inkscape:version="0.48.4 r9939"
   sodipodi:docname="logo.svg"
   inkscape:export-filename="C:\wamp\www\Cocoas\img\logo.png"
   inkscape:export-xdpi="90"
   inkscape:export-ydpi="90">
  <defs
     id="defs4">
    <linearGradient
       id="linearGradient4912">
      <stop
         style="stop-color:#c9945f;stop-opacity:1;"
         offset="0"
         id="stop4914" />
      <stop
         id="stop4920"
         offset="0.51517481"
         style="stop-color:#c9945f;stop-opacity:1;" />
      <stop
         style="stop-color:#c9945f;stop-opacity:1;"
         offset="1"
         id="stop4916" />
    </linearGradient>
    <linearGradient
       inkscape:collect="always"
       xlink:href="#linearGradient4912"
       id="linearGradient4918"
       x1="35.639572"
       y1="47.62532"
       x2="155.95187"
       y2="47.62532"
       gradientUnits="userSpaceOnUse" />
  </defs>
  <sodipodi:namedview
     id="base"
     pagecolor="#ffffff"
     bordercolor="#666666"
     borderopacity="1.0"
     inkscape:pageopacity="0.0"
     inkscape:pageshadow="2"
     inkscape:zoom="3.2267502"
     inkscape:cx="210.14537"
     inkscape:cy="68.569051"
     inkscape:document-units="px"
     inkscape:current-layer="g3278"
     showgrid="false"
     inkscape:window-width="1600"
     inkscape:window-height="837"
     inkscape:window-x="-8"
     inkscape:window-y="-8"
     inkscape:window-maximized="1" />
  <metadata
     id="metadata7">
    <rdf:RDF>
      <cc:Work
         rdf:about="">
        <dc:format>image/svg+xml</dc:format>
        <dc:type
           rdf:resource="http://purl.org/dc/dcmitype/StillImage" />
        <dc:title />
      </cc:Work>
    </rdf:RDF>
  </metadata>
  <g
     inkscape:label="Layer 1"
     inkscape:groupmode="layer"
     id="layer1"
     transform="translate(0,-952.36218)">
    <g
       id="g3278"
       transform="matrix(1.4138701,0,0,1.4138701,-72.42727,-414.84774)">
      <text
         inkscape:export-filename="C:\wamp\www\Cocoas\img\text2985.png"
         inkscape:export-ydpi="90"
         inkscape:export-xdpi="90"
         sodipodi:linespacing="125%"
         id="text2985"
         y="1020.0638"
         x="162.36043"
         style="font-size:50.29017257999999700px;font-style:normal;font-weight:normal;line-height:125%;letter-spacing:0px;word-spacing:0px;fill:#ffffff;fill-opacity:1;stroke:none;font-family:Sans"
         xml:space="preserve"><tspan
           id="tspan2991"
           style="font-style:normal;font-variant:normal;font-weight:300;font-stretch:normal;fill:#ffffff;font-family:Raleway;-inkscape-font-specification:Raleway Light"
           y="1020.0638"
           x="162.36043"
           sodipodi:role="line">ocoas</tspan></text>
      <text
         transform="translate(0,952.36218)"
         sodipodi:linespacing="125%"
         id="text3034"
         y="4.8738461"
         x="89.886154"
         style="font-size:40px;font-style:normal;font-weight:normal;line-height:125%;letter-spacing:0px;word-spacing:0px;fill:#000000;fill-opacity:1;stroke:none;font-family:Sans"
         xml:space="preserve"><tspan
           style="font-size:72px;font-style:normal;font-variant:normal;font-weight:normal;font-stretch:normal;font-family:Segoe UI;-inkscape-font-specification:Segoe UI"
           y="4.8738461"
           x="89.886154"
           id="tspan3036"
           sodipodi:role="line" /></text>
      <g
         transform="matrix(1.1291892,0,0,1.3170951,46.554592,-323.44292)"
         id="g3066">
        <path
           style="fill:none;stroke:#c9945f;stroke-width:6;stroke-linecap:butt;stroke-linejoin:miter;stroke-opacity:1"
           d="m 40.472616,59.812402 c 0,0 -30.340024,-0.364131 -32.9196276,-10.260663 C 4.9733851,39.655207 31.637045,38.151002 31.637045,38.151002"
           id="path3064"
           inkscape:connector-curvature="0"
           sodipodi:nodetypes="czc"
           transform="translate(0,952.36218)"
           inkscape:export-filename="C:\wamp\www\Cocoas\img\path3064.png"
           inkscape:export-xdpi="90"
           inkscape:export-ydpi="90" />
        <path
           style="opacity:0.98999999000000005;fill:url(#linearGradient4918);fill-opacity:1;stroke:none"
           d="M 35.875 8.34375 C 35.875 54.358876 62.634557 91.65625 95.6875 91.65625 C 128.74045 91.65625 155.5625 54.358876 155.5625 8.34375 L 95.6875 8.34375 L 35.875 8.34375 z M 97.125 24.40625 C 101.62826 24.406307 105.50305 25.430529 108.75 27.46875 C 111.99687 29.50707 114.41968 32.166752 116.03125 35.4375 L 109.78125 39.625 C 109.11723 38.10755 108.27649 36.823569 107.28125 35.78125 C 106.28596 34.739002 105.22409 33.897542 104.0625 33.28125 C 102.90085 32.665029 101.70123 32.229906 100.46875 31.96875 C 99.236209 31.707679 98.028488 31.593792 96.84375 31.59375 C 94.283217 31.593792 91.997887 32.120664 90.03125 33.1875 C 88.064557 34.254406 86.420992 35.652273 85.09375 37.40625 C 83.766465 39.160297 82.788982 41.132496 82.125 43.3125 C 81.461004 45.49256 81.124986 47.66229 81.125 49.84375 C 81.124986 52.308833 81.49863 54.678556 82.28125 56.90625 C 83.063855 59.134085 84.171722 61.106242 85.59375 62.8125 C 87.01575 64.518758 88.712702 65.855882 90.65625 66.875 C 92.599742 67.894118 94.709421 68.40625 97.03125 68.40625 C 98.216002 68.40625 99.47711 68.245582 100.78125 67.9375 C 102.08533 67.629418 103.30781 67.155891 104.46875 66.46875 C 105.62962 65.781609 106.72272 64.918012 107.71875 63.875 C 108.71469 62.832129 109.52492 61.563468 110.1875 60.09375 L 116.8125 63.875 C 116.00669 65.771565 114.88334 67.429742 113.4375 68.875 C 111.99156 70.320117 110.36421 71.53532 108.5625 72.53125 C 106.76071 73.527321 104.85074 74.290923 102.8125 74.8125 C 100.77419 75.333935 98.740503 75.59375 96.75 75.59375 C 93.241948 75.59375 90.047289 74.830007 87.15625 73.3125 C 84.265197 71.794993 81.766112 69.816188 79.65625 67.375 C 77.54636 64.933812 75.9109 62.166935 74.75 59.0625 C 73.5891 55.958065 73 52.785558 73 49.5625 C 73 46.527515 73.566227 43.509705 74.65625 40.5 C 75.746273 37.490365 77.312842 34.800441 79.375 32.40625 C 81.43713 30.012158 83.950954 28.062818 86.9375 26.59375 C 89.924004 25.124767 93.33341 24.406307 97.125 24.40625 z "
           transform="matrix(0.62635965,0,0,0.53699885,4.1371834,979.7631)"
           id="path3061" />
        <g
           transform="matrix(0.88559118,0,0,0.75924662,-40.49782,245.57298)"
           style="font-size:50.29017258px;font-style:normal;font-weight:normal;line-height:125%;letter-spacing:0px;word-spacing:0px;fill:#000000;fill-opacity:1;stroke:none;font-family:Sans"
           id="text3006" />
      </g>
      <text
         xml:space="preserve"
         style="font-size:22.63291359px;font-style:normal;font-variant:normal;font-weight:300;font-stretch:normal;line-height:125%;letter-spacing:0px;word-spacing:0px;fill:#ffffff;fill-opacity:1;stroke:none;font-family:Raleway;-inkscape-font-specification:Raleway Light"
         x="166.08298"
         y="989.28461"
         id="text3007"
         sodipodi:linespacing="125%"><tspan
           sodipodi:role="line"
           id="tspan3009"
           x="166.08298"
           y="989.28461">Cafe</tspan></text>
    </g>
  </g>
</svg>
