<?xml version="1.0" encoding="UTF-8" standalone="no"?>
<!-- Created with Inkscape (http://www.inkscape.org/) -->

<svg
   xmlns:dc="http://purl.org/dc/elements/1.1/"
   xmlns:cc="http://creativecommons.org/ns#"
   xmlns:rdf="http://www.w3.org/1999/02/22-rdf-syntax-ns#"
   xmlns:svg="http://www.w3.org/2000/svg"
   xmlns="http://www.w3.org/2000/svg"
   xmlns:sodipodi="http://sodipodi.sourceforge.net/DTD/sodipodi-0.dtd"
   xmlns:inkscape="http://www.inkscape.org/namespaces/inkscape"
   width="128"
   height="128"
   id="svg4366"
   version="1.1"
   inkscape:version="0.48.4 r9939"
   sodipodi:docname="muffin.svg"
   inkscape:export-filename="C:\wamp\www\Cocoas\img\muffin.png"
   inkscape:export-xdpi="180"
   inkscape:export-ydpi="180">
  <defs
     id="defs4368" />
  <sodipodi:namedview
     id="base"
     pagecolor="#ffffff"
     bordercolor="#666666"
     borderopacity="1.0"
     inkscape:pageopacity="0.0"
     inkscape:pageshadow="2"
     inkscape:zoom="2.7969472"
     inkscape:cx="40.143152"
     inkscape:cy="61.863144"
     inkscape:document-units="px"
     inkscape:current-layer="layer1"
     showgrid="false"
     inkscape:window-width="1600"
     inkscape:window-height="837"
     inkscape:window-x="-8"
     inkscape:window-y="-8"
     inkscape:window-maximized="1" />
  <metadata
     id="metadata4371">
    <rdf:RDF>
      <cc:Work
         rdf:about="">
        <dc:format>image/svg+xml</dc:format>
        <dc:type
           rdf:resource="http://purl.org/dc/dcmitype/StillImage" />
        <dc:title></dc:title>
      </cc:Work>
    </rdf:RDF>
  </metadata>
  <g
     inkscape:label="Layer 1"
     inkscape:groupmode="layer"
     id="layer1"
     transform="translate(0,-924.36218)">
    <g
       id="g4906"
       transform="matrix(2.0913466,0,0,1.7976686,-34.424678,-798.27878)">
      <path
         style="fill:#c9945f;fill-opacity:1;stroke:none"
         d="m 67.59375,-8.71875 c -14.857616,0 -27.063775,11.2887537 -28.5625,25.75 C 22.146222,18.479304 9,30.667303 9,45.5625 c 0,15.869704 14.943973,28.75 33.40625,28.75 4.195342,0 8.206521,-0.693456 11.90625,-1.90625 3.372598,3.46559 8.063518,5.625 13.28125,5.625 5.217734,0 9.971152,-2.15941 13.34375,-5.625 3.69432,1.208771 7.68705,1.90625 11.875,1.90625 18.46228,0 33.4375,-12.880296 33.4375,-28.75 0,-14.877841 -13.17452,-27.059749 -30.03125,-28.53125 -1.498553,-14.4614378 -13.767255,-25.75 -28.625,-25.75 z M 38.875,31.625 a 5.0005,5.0005 0 0 1 3.65625,8.59375 l -10.75,10.71875 A 5.0005,5.0005 0 1 1 24.71875,43.875 L 35.4375,33.15625 A 5.0005,5.0005 0 0 1 38.875,31.625 z m 55.1875,0.25 a 5.0005,5.0005 0 0 1 0.03125,0 5.0005,5.0005 0 0 1 0.34375,0 5.0005,5.0005 0 0 1 3.59375,1.53125 L 108.75,44.125 a 5.0005,5.0005 0 1 1 -7.0625,7.0625 L 90.96875,40.46875 A 5.0005,5.0005 0 0 1 94.0625,31.875 z m -27.40625,4.84375 a 5.0005,5.0005 0 0 1 5.09375,5.0625 l 0,15.1875 a 5.0005,5.0005 0 1 1 -10,0 l 0,-15.1875 a 5.0005,5.0005 0 0 1 4.90625,-5.0625 z"
         transform="matrix(0.44871338,0,0,0.52201793,16.718582,962.63807)"
         id="path4884"
         inkscape:connector-curvature="0" />
    </g>
    <path
       style="fill:#c9945f;fill-opacity:1;stroke:#c9945f;stroke-width:1.57217252;stroke-linecap:butt;stroke-linejoin:round;stroke-miterlimit:4"
       d="m 21.961929,1004.6593 12.668606,46.5982 58.562976,0 12.844559,-46.5395 c -5.16157,3.1948 -11.487508,5.0733 -18.328422,5.0733 -3.930036,0 -7.676878,-0.6544 -11.143681,-1.7889 -3.164898,3.2522 -7.62558,5.2786 -12.52198,5.2786 -4.8964,0 -9.298428,-2.0264 -12.463327,-5.2786 -3.471882,1.1383 -7.236035,1.7889 -11.173006,1.7889 -6.87109,0 -13.223807,-1.9114 -18.387074,-5.132 l -0.05865,0 z"
       id="rect4960"
       inkscape:connector-curvature="0" />
    <g
       transform="matrix(2.2285941,0,0,1.915643,-37.258934,-907.57364)"
       id="g5014"
       style="fill:#ff00ff" />
    <g
       id="g5025"
       transform="translate(104.15927,-29.579212)">
      <g
         id="g5044" />
    </g>
  </g>
</svg>
